<?xml version="1.0" encoding="UTF-8"?>
<svg width="14px" height="17px" viewBox="0 0 14 17" version="1.1" xmlns="http://www.w3.org/2000/svg" xmlns:xlink="http://www.w3.org/1999/xlink">
    <!-- Generator: Sketch 50.2 (55047) - http://www.bohemiancoding.com/sketch -->
    <title>arrow</title>
    <desc>Created with Sketch.</desc>
    <defs></defs>
    <g id="arrow" stroke="none" stroke-width="1" fill="none" fill-rule="evenodd">
        <path d="M7.8515625,5.16493056 C7.95052133,5.27488481 8,5.40509184 8,5.55555556 C8,5.70601927 7.95052133,5.8362263 7.8515625,5.94618056 L4.3515625,9.83506944 C4.25260367,9.9450237 4.13541734,10 4,10 C3.86458266,10 3.74739633,9.9450237 3.6484375,9.83506944 L0.1484375,5.94618056 C0.0494786719,5.8362263 0,5.70601927 0,5.55555556 C0,5.40509184 0.0494786719,5.27488481 0.1484375,5.16493056 C0.247396328,5.0549763 0.364582656,5 0.5,5 L7.5,5 C7.63541734,5 7.75260367,5.0549763 7.8515625,5.16493056 Z" id="caret-down---FontAwesome" fill="#F7F8F8"></path>
        <path d="M7.8515625,0.164930556 C7.95052133,0.274884809 8,0.40509184 8,0.555555556 C8,0.706019271 7.95052133,0.836226302 7.8515625,0.946180556 L4.3515625,4.83506944 C4.25260367,4.9450237 4.13541734,5 4,5 C3.86458266,5 3.74739633,4.9450237 3.6484375,4.83506944 L0.1484375,0.946180556 C0.0494786719,0.836226302 0,0.706019271 0,0.555555556 C0,0.40509184 0.0494786719,0.274884809 0.1484375,0.164930556 C0.247396328,0.0549763021 0.364582656,0 0.5,0 L7.5,0 C7.63541734,0 7.75260367,0.0549763021 7.8515625,0.164930556 Z" id="caret-down---FontAwesome" fill="#667899"></path>
        <path d="M9.16493056,0.1484375 C9.27488481,0.0494786719 9.40509184,0 9.55555556,0 C9.70601927,0 9.8362263,0.0494786719 9.94618056,0.1484375 L13.8350694,3.6484375 C13.9450237,3.74739633 14,3.86458266 14,4 C14,4.13541734 13.9450237,4.25260367 13.8350694,4.3515625 L9.94618056,7.8515625 C9.8362263,7.95052133 9.70601927,8 9.55555556,8 C9.40509184,8 9.27488481,7.95052133 9.16493056,7.8515625 C9.0549763,7.75260367 9,7.63541734 9,7.5 L9,0.5 C9,0.364582656 9.0549763,0.247396328 9.16493056,0.1484375 Z" id="caret-down---FontAwesome-Copy" fill="#667899"></path>
        <path d="M9.16493056,9.1484375 C9.27488481,9.04947867 9.40509184,9 9.55555556,9 C9.70601927,9 9.8362263,9.04947867 9.94618056,9.1484375 L13.8350694,12.6484375 C13.9450237,12.7473963 14,12.8645827 14,13 C14,13.1354173 13.9450237,13.2526037 13.8350694,13.3515625 L9.94618056,16.8515625 C9.8362263,16.9505213 9.70601927,17 9.55555556,17 C9.40509184,17 9.27488481,16.9505213 9.16493056,16.8515625 C9.0549763,16.7526037 9,16.6354173 9,16.5 L9,9.5 C9,9.36458266 9.0549763,9.24739633 9.16493056,9.1484375 Z" id="caret-down---FontAwesome-Copy-2" fill="#F7F8F8"></path>
    </g>
</svg>