<?xml version="1.0" encoding="UTF-8"?>
<svg width="136px" height="33px" viewBox="0 0 136 33" version="1.1" xmlns="http://www.w3.org/2000/svg" xmlns:xlink="http://www.w3.org/1999/xlink">
    <!-- Generator: Sketch 50.2 (55047) - http://www.bohemiancoding.com/sketch -->
    <title>easydb_logo</title>
    <desc>Created with Sketch.</desc>
    <defs></defs>
    <g id="easydb_logo" stroke="none" stroke-width="1" fill="none" fill-rule="evenodd">
        <path d="M44.645058,18.250535 C44.8854503,20.4236153 46.5107369,21.7391518 48.5265144,21.7391518 C50.3323883,21.7391518 51.5062064,20.8828007 52.4079708,19.7497457 L54.9971719,21.7391518 C53.3109077,23.8514049 51.1743478,24.6767461 48.8876892,24.6767461 C44.5242755,24.6767461 41.0344828,21.5864875 41.0344828,16.9660083 C41.0344828,12.3431438 44.5242755,9.25288526 48.8876892,9.25288526 C52.9204168,9.25288526 55.6585439,12.1296524 55.6585439,17.2403269 L55.6585439,18.250535 L44.645058,18.250535 Z M52.046796,15.4966149 C52.0163072,13.3545445 50.6325856,12.0068053 48.3764158,12.0068053 C46.2398558,12.0068053 44.9159391,13.3843617 44.645058,15.4966149 L52.046796,15.4966149 Z M67.7543815,22.2901743 L67.6640878,22.2901743 C66.6415409,23.943242 64.9564495,24.6767461 63.0309657,24.6767461 C60.3526435,24.6767461 57.7646151,23.1775353 57.7646151,20.270951 C57.7646151,15.4966149 63.2408692,15.1590837 66.8514445,15.1590837 L67.7543815,15.1590837 L67.7543815,14.7607254 C67.7543815,12.9561862 66.3706598,12.0068053 64.4451761,12.0068053 C62.9394993,12.0068053 61.5557777,12.6186551 60.5930358,13.5382187 L58.6968682,11.6096397 C60.291666,9.95657207 62.5478358,9.25288526 64.835667,9.25288526 C71.0049546,9.25288526 71.0049546,13.78272 71.0049546,15.8639632 L71.0049546,24.3105904 L67.7543815,24.3105904 L67.7543815,22.2901743 Z M67.5433053,17.7305223 L66.7916396,17.7305223 C64.8063509,17.7305223 61.3751903,17.8831866 61.3751903,19.9954397 C61.3751903,21.3407935 62.7295958,21.922826 63.9022412,21.922826 C66.3706598,21.922826 67.5433053,20.6072894 67.5433053,18.5558635 L67.5433053,17.7305223 Z M82.2881489,13.6908829 C81.5962881,12.7116848 80.6933511,12.1916722 79.4585555,12.1916722 C78.4969862,12.1916722 77.3524843,12.649665 77.3524843,13.7517101 C77.3524843,16.3839759 85.1470584,14.2419055 85.1470584,19.9644298 C85.1470584,23.4530466 81.8671692,24.6767461 78.9179659,24.6767461 C76.6911123,24.6767461 74.7656285,24.0959063 73.2916132,22.4142141 L75.6978816,20.1182867 C76.6313073,21.158312 77.5940492,21.922826 79.1278694,21.922826 C80.1820777,21.922826 81.5353105,21.4028133 81.5353105,20.2399411 C81.5353105,17.2105097 73.741909,19.5970814 73.741909,13.9974041 C73.741909,10.7222787 76.6313073,9.25288526 79.5500218,9.25288526 C81.4755056,9.25288526 83.5217719,9.86473498 84.6955899,11.4867927 L82.2881489,13.6908829 Z M85.687648,9.62023363 L89.6605707,9.62023363 L93.6921256,19.8117655 L93.7519306,19.8117655 L97.3625058,9.62023363 L101.124352,9.62023363 L94.2936928,27.4628688 C93.2406572,30.2167889 91.9765454,31.6551724 88.7869498,31.6551724 C87.8546967,31.6551724 86.9224436,31.5335181 86.0195066,31.287824 L86.4698025,27.9816887 C87.0420534,28.1975655 87.6741093,28.3490371 88.3061652,28.3490371 C90.0815504,28.3490371 90.562335,27.7085628 91.1650748,26.1783422 L91.8557629,24.4334374 L85.687648,9.62023363 Z M113.793614,22.1065002 L113.732636,22.1065002 C112.6796,23.8812222 110.783433,24.6767461 108.767655,24.6767461 C104.315121,24.6767461 101.636798,21.3121689 101.636798,16.9660083 C101.636798,12.6186551 104.494535,9.25288526 108.617557,9.25288526 C111.325195,9.25288526 112.769894,10.5386046 113.522732,11.4867927 L113.613026,11.4867927 L113.613026,1.17241379 L117.223601,1.17241379 L117.223601,24.3105904 L113.793614,24.3105904 L113.793614,22.1065002 Z M109.490005,21.3729961 C112.137838,21.3729961 113.732636,19.260743 113.732636,16.9660083 C113.732636,14.670081 112.137838,12.5590206 109.490005,12.5590206 C106.842171,12.5590206 105.247374,14.670081 105.247374,16.9660083 C105.247374,19.260743 106.842171,21.3729961 109.490005,21.3729961 Z M120.413197,1.17241379 L124.023772,1.17241379 L124.023772,11.4867927 L124.114066,11.4867927 C124.866904,10.5386046 126.310431,9.25288526 129.019242,9.25288526 C133.14109,9.25288526 136,12.6186551 136,16.9660083 C136,21.3121689 133.321678,24.6767461 128.867971,24.6767461 C126.852193,24.6767461 124.956025,23.8812222 123.90299,22.1065002 L123.843185,22.1065002 L123.843185,24.3105904 L120.413197,24.3105904 L120.413197,1.17241379 Z M128.145621,12.5590206 C125.497788,12.5590206 123.90299,14.670081 123.90299,16.9660083 C123.90299,19.260743 125.497788,21.3729961 128.145621,21.3729961 C130.793454,21.3729961 132.389425,19.260743 132.389425,16.9660083 C132.389425,14.670081 130.793454,12.5590206 128.145621,12.5590206 Z M4.68965517,26.9655172 C1.76547225,24.0210671 0,20.1106879 0,15.8188369 C0,11.5363184 1.77566993,7.63177217 4.68838046,4.68965517 L4.68965517,26.9655172 Z M10.5517241,1.14461114 C12.4051804,0.406562182 14.4248402,0 16.538491,0 C25.5352617,0 32.8275862,7.34930445 32.8275862,16.4137931 C32.8275862,25.4782818 25.5352617,32.8275862 16.538491,32.8275862 C14.4259865,32.8275862 12.4074729,32.422179 10.5540166,31.6852851 L10.5517241,1.14461114 Z M26.2734348,23.6372019 L26.2734348,9.09567382 L20.1216105,11.1030746 L20.1216105,23.6372019 L26.2734348,23.6372019 Z M18.3827774,23.6372019 L18.3827774,9.09567382 L12.2619015,11.1030746 L12.2619015,23.6372019 L18.3827774,23.6372019 Z" fill="#384256" fill-rule="nonzero"></path>
    </g>
</svg>