<?xml version="1.0" encoding="UTF-8"?>
<svg width="23px" height="19px" viewBox="0 0 23 19" version="1.1" xmlns="http://www.w3.org/2000/svg" xmlns:xlink="http://www.w3.org/1999/xlink">
    <!-- Generator: Sketch 50.2 (55047) - http://www.bohemiancoding.com/sketch -->
    <title>folder</title>
    <desc>Created with Sketch.</desc>
    <defs></defs>
    <g id="folder" stroke="none" stroke-width="1" fill="none" fill-rule="evenodd">
        <path d="M0,3 L21.5,3 C22.3284271,3 23,3.67157288 23,4.5 L23,17.5 C23,18.3284271 22.3284271,19 21.5,19 L1.5,19 C0.671572875,19 1.01453063e-16,18.3284271 0,17.5 L0,3 Z" id="Rectangle" fill="#4895E8"></path>
        <path d="M-8.43541377e-05,3 L-8.94058576e-05,1.4999756 C-8.94058576e-05,0.671548478 0.671483469,-2.43970071e-05 1.49991059,-2.43970071e-05 C1.49991228,-2.43970071e-05 1.49991396,-2.43970043e-05 1.49991565,-2.43969986e-05 L5.70569932,-8.84446028e-06 C6.40173584,-6.50033526e-06 7.00633003,0.478807066 7.16579875,1.15632944 C7.45509573,2.38544315 8.06649615,3 9,3 C9.89309242,3 6.8930643,3 -8.43541377e-05,3 Z" id="Path-2" fill="#166BC5"></path>
    </g>
</svg>