<?xml version="1.0" encoding="UTF-8"?>
<svg width="116px" height="28px" viewBox="0 0 116 28" version="1.1" xmlns="http://www.w3.org/2000/svg" xmlns:xlink="http://www.w3.org/1999/xlink">
    <!-- Generator: Sketch 42 (36781) - http://www.bohemiancoding.com/sketch -->
    <title>easydb_logo</title>
    <desc>Created with Sketch.</desc>
    <defs></defs>
    <g id="Page-1" stroke="none" stroke-width="1" fill="none" fill-rule="evenodd">
        <g id="easydb_logo" fill="#FFFFFF">
            <path d="M38.193,15.058 C38.398,16.88 39.784,17.983 41.503,17.983 C43.043,17.983 44.044,17.265 44.813,16.315 L47.021,17.983 C45.583,19.754 43.761,20.446 41.811,20.446 C38.09,20.446 35.114,17.855 35.114,13.981 C35.114,10.105 38.09,7.514 41.811,7.514 C45.25,7.514 47.585,9.926 47.585,14.211 L47.585,15.058 L38.193,15.058 Z M44.505,12.749 C44.479,10.953 43.299,9.823 41.375,9.823 C39.553,9.823 38.424,10.978 38.193,12.749 L44.505,12.749 Z M57.9,18.445 L57.823,18.445 C56.951,19.831 55.514,20.446 53.872,20.446 C51.588,20.446 49.381,19.189 49.381,16.752 C49.381,12.749 54.051,12.466 57.13,12.466 L57.9,12.466 L57.9,12.132 C57.9,10.619 56.72,9.823 55.078,9.823 C53.794,9.823 52.614,10.336 51.793,11.107 L50.176,9.49 C51.536,8.104 53.46,7.514 55.411,7.514 C60.672,7.514 60.672,11.312 60.672,13.057 L60.672,20.139 L57.9,20.139 L57.9,18.445 Z M57.72,14.622 L57.079,14.622 C55.386,14.622 52.46,14.75 52.46,16.521 C52.46,17.649 53.615,18.137 54.615,18.137 C56.72,18.137 57.72,17.034 57.72,15.314 L57.72,14.622 Z M70.294,11.235 C69.704,10.414 68.934,9.978 67.881,9.978 C67.061,9.978 66.085,10.362 66.085,11.286 C66.085,13.493 72.732,11.697 72.732,16.495 C72.732,19.42 69.935,20.446 67.42,20.446 C65.521,20.446 63.879,19.959 62.622,18.549 L64.674,16.624 C65.47,17.496 66.291,18.137 67.599,18.137 C68.498,18.137 69.652,17.701 69.652,16.726 C69.652,14.186 63.006,16.187 63.006,11.492 C63.006,8.746 65.47,7.514 67.959,7.514 C69.601,7.514 71.346,8.027 72.347,9.387 L70.294,11.235 Z M73.193,7.822 L76.581,7.822 L80.019,16.367 L80.07,16.367 L83.149,7.822 L86.357,7.822 L80.532,22.782 C79.634,25.091 78.556,26.297 75.836,26.297 C75.041,26.297 74.246,26.195 73.476,25.989 L73.86,23.217 C74.348,23.398 74.887,23.525 75.426,23.525 C76.94,23.525 77.35,22.988 77.864,21.705 L78.453,20.242 L73.193,7.822 Z M97.161,18.291 L97.109,18.291 C96.211,19.779 94.594,20.446 92.875,20.446 C89.078,20.446 86.794,17.625 86.794,13.981 C86.794,10.336 89.231,7.514 92.747,7.514 C95.056,7.514 96.288,8.592 96.93,9.387 L97.007,9.387 L97.007,0.739 L100.086,0.739 L100.086,20.139 L97.161,20.139 L97.161,18.291 Z M93.491,17.676 C95.749,17.676 97.109,15.905 97.109,13.981 C97.109,12.056 95.749,10.286 93.491,10.286 C91.233,10.286 89.873,12.056 89.873,13.981 C89.873,15.905 91.233,17.676 93.491,17.676 Z M102.806,0.739 L105.885,0.739 L105.885,9.387 L105.962,9.387 C106.604,8.592 107.835,7.514 110.145,7.514 C113.66,7.514 116.098,10.336 116.098,13.981 C116.098,17.625 113.814,20.446 110.016,20.446 C108.297,20.446 106.68,19.779 105.782,18.291 L105.731,18.291 L105.731,20.139 L102.806,20.139 L102.806,0.739 Z M109.4,10.286 C107.142,10.286 105.782,12.056 105.782,13.981 C105.782,15.905 107.142,17.676 109.4,17.676 C111.658,17.676 113.019,15.905 113.019,13.981 C113.019,12.056 111.658,10.286 109.4,10.286 Z" id="easydb"></path>
            <path d="M3.68,23.455 C1.386,20.931 0.001,17.579 0.001,13.9 C0.001,10.229 1.394,6.882 3.679,4.36 L3.68,23.455" id="logo_left"></path>
            <path d="M22.705,20.154 L17.338,20.154 L17.338,9.302 L22.705,7.564 L22.705,20.154 Z M15.821,20.154 L10.481,20.154 L10.481,9.302 L15.821,7.564 L15.821,20.154 Z M14.212,-0.311 C12.368,-0.311 10.606,0.041 8.989,0.68 L8.991,27.122 C10.608,27.76 12.369,28.111 14.212,28.111 C22.061,28.111 28.423,21.748 28.423,13.9 C28.423,6.052 22.061,-0.311 14.212,-0.311 L14.212,-0.311 Z" id="logo_right"></path>
        </g>
    </g>
</svg>